<?xml version="1.0" encoding="utf-8"?>
<!-- Generator: Adobe Illustrator 24.2.3, SVG Export Plug-In . SVG Version: 6.00 Build 0)  -->
<svg version="1.1" id="Layer_1" xmlns="http://www.w3.org/2000/svg" x="0px" y="0px"
     viewBox="0 0 97 29" style="enable-background:new 0 0 97 29;" xml:space="preserve">
<style type="text/css">
	.st0{fill:#10405D;}
	.st1{fill:#E52B20;}
	.st2{font-family:'StagSans-Light';}
	.st3{font-size:8.7297px;}
</style>
<path class="st0" d="M24.99,15.14c0-0.53,0.09-1.03,0.26-1.5c0.17-0.47,0.42-0.88,0.75-1.23c0.33-0.35,0.72-0.63,1.19-0.83
	c0.47-0.2,1-0.31,1.59-0.31c0.39,0,0.75,0.03,1.08,0.1c0.33,0.07,0.64,0.17,0.95,0.3l-0.43,1.66c-0.2-0.07-0.41-0.14-0.64-0.2
	c-0.23-0.06-0.49-0.08-0.78-0.08c-0.61,0-1.07,0.19-1.38,0.57c-0.3,0.38-0.45,0.88-0.45,1.51c0,0.66,0.14,1.17,0.43,1.54
	c0.28,0.36,0.78,0.55,1.49,0.55c0.25,0,0.52-0.02,0.81-0.07c0.29-0.05,0.55-0.12,0.8-0.22l0.29,1.7c-0.24,0.1-0.55,0.19-0.91,0.26
	c-0.36,0.07-0.76,0.11-1.2,0.11c-0.67,0-1.25-0.1-1.73-0.3c-0.48-0.2-0.88-0.47-1.19-0.82c-0.31-0.34-0.54-0.75-0.68-1.22
	C25.06,16.2,24.99,15.69,24.99,15.14"/>
<path class="st0" d="M53.23,15.67h-4.68c0,0,0.1,1.56,2.19,1.56c1.04,0,2.08-0.31,2.08-0.31l0.21,1.66c0,0-1.04,0.42-2.5,0.42
	c-2.08,0-3.95-1.04-3.95-3.95c0-2.29,1.46-3.75,3.54-3.75C53.23,11.3,53.44,14.42,53.23,15.67 M50,12.75
	c-1.35,0-1.46,1.46-1.46,1.46h2.91C51.46,14.21,51.36,12.75,50,12.75"/>
<path class="st0" d="M70.78,15.67h-4.68c0,0,0.1,1.56,2.19,1.56c1.04,0,2.08-0.31,2.08-0.31l0.21,1.66c0,0-1.04,0.42-2.5,0.42
	c-2.08,0-3.96-1.04-3.96-3.95c0-2.29,1.46-3.75,3.54-3.75C70.78,11.3,70.98,14.42,70.78,15.67 M67.55,12.75
	c-1.35,0-1.46,1.46-1.46,1.46h2.91C69.01,14.21,68.9,12.75,67.55,12.75"/>
<rect x="21.44" y="11.47" class="st0" width="2.08" height="7.35"/>
<path class="st0" d="M19.6,11.47l0,6.65c0,0-1.04,0.84-3.33,0.84c-2.08,0-3.23-1.04-3.23-3.33v-4.16h2.08v4.16
	c0,1.46,0.73,1.56,1.35,1.56c0.62,0,1.04-0.31,1.04-0.31l0-5.41H19.6z"/>
<path class="st0" d="M34.55,14.1c0.2-0.22,0.42-0.45,0.63-0.69c0.22-0.24,0.43-0.48,0.63-0.71c0.2-0.24,0.4-0.46,0.58-0.67
	c0.18-0.21,0.34-0.4,0.47-0.56h2.48c-0.49,0.57-0.98,1.11-1.45,1.62c-0.47,0.52-0.98,1.05-1.54,1.6c0.28,0.25,0.57,0.55,0.87,0.9
	c0.3,0.35,0.59,0.71,0.87,1.08c0.28,0.37,0.54,0.75,0.77,1.12c0.23,0.37,0.43,0.71,0.59,1.02h-2.39c-0.15-0.24-0.32-0.51-0.51-0.81
	c-0.19-0.29-0.39-0.59-0.61-0.88c-0.21-0.29-0.44-0.58-0.68-0.85c-0.24-0.27-0.47-0.5-0.7-0.69v3.22h-2.08V9.63l2.08-0.37V14.1z"/>
<path class="st0" d="M40.57,9.63l2.08-0.37v2.16h2.06v1.73h-2.06v2.58c0,0.44,0.08,0.79,0.23,1.05c0.15,0.26,0.46,0.39,0.93,0.39
	c0.22,0,0.45-0.02,0.69-0.06c0.24-0.04,0.45-0.1,0.65-0.18l0.29,1.62c-0.25,0.1-0.53,0.19-0.84,0.27c-0.31,0.07-0.68,0.11-1.13,0.11
	c-0.57,0-1.04-0.08-1.41-0.23c-0.37-0.15-0.67-0.37-0.89-0.64c-0.22-0.27-0.38-0.61-0.47-1c-0.09-0.39-0.13-0.82-0.13-1.3V9.63z"/>
<path class="st0" d="M57.69,18.95c-0.6-0.01-1.1-0.07-1.47-0.19c-0.38-0.12-0.67-0.29-0.89-0.51c-0.22-0.22-0.37-0.48-0.45-0.8
	c-0.08-0.31-0.12-0.66-0.12-1.05V9.63l2.08-0.37v6.71c0,0.19,0.01,0.35,0.04,0.5c0.03,0.15,0.08,0.27,0.16,0.38
	c0.08,0.1,0.19,0.19,0.34,0.25c0.15,0.06,0.35,0.11,0.6,0.13L57.69,18.95z"/>
<path class="st0" d="M62.46,18.95c-0.61-0.01-1.1-0.07-1.47-0.19c-0.38-0.12-0.68-0.29-0.89-0.51c-0.22-0.22-0.37-0.48-0.45-0.8
	c-0.08-0.31-0.12-0.66-0.12-1.05V9.63l2.08-0.37v6.71c0,0.19,0.01,0.35,0.04,0.5c0.03,0.15,0.08,0.27,0.16,0.38
	c0.08,0.1,0.19,0.19,0.34,0.25c0.15,0.06,0.35,0.11,0.6,0.13L62.46,18.95z"/>
<g>
	<path class="st0" d="M6.37,17.12c-1.67,0-3.02-1.35-3.02-3.02c0-1.67,1.35-3.02,3.02-3.02c1.67,0,3.02,1.35,3.02,3.02
		C9.39,15.76,8.04,17.12,6.37,17.12 M10.7,16.97c0.55-0.82,0.87-1.81,0.87-2.88c0-2.87-2.33-5.2-5.2-5.2c-2.87,0-5.2,2.33-5.2,5.2
		c0,2.87,2.33,5.2,5.2,5.2c1.06,0,2.05-0.32,2.88-0.87l1.08,1.08l1.66-1.25L10.7,16.97z"/>
	<path class="st0" d="M76.46,13.19l0.31-1.66c0,0-2.41-0.73-4.37,0.62v6.66h2.08l0-5.41C75.32,12.78,76.46,13.19,76.46,13.19"/>
	<path class="st1" d="M81.02,24.32c-0.85-0.21,6.78-9.11,5.51-12.72c-0.64-1.91-7-1.7-7-2.33c0-0.64,12.3-2.33,13.47-0.74
		C94.81,10.75,82.08,24.74,81.02,24.32"/>
	<path class="st1" d="M95.86,3.76c0,1.52-1.23,2.76-2.76,2.76c-1.52,0-2.76-1.23-2.76-2.76C90.35,2.23,91.58,1,93.1,1
		C94.63,1,95.86,2.23,95.86,3.76"/>
</g>
<text transform="matrix(1 0 0 1 39.6592 26.4775)" class="st0 st2 st3">Transport</text>
</svg>
