<svg height="57" viewBox="0 0 78 57" width="78" xmlns="http://www.w3.org/2000/svg"><g fill="none" fill-rule="evenodd" transform="translate(1 1)"><ellipse cx="30.5" cy="53" fill="#eef7ff" rx="27.5" ry="2"/><g fill="#008bff" fill-rule="nonzero" stroke="#008bff"><path d="m49.7517696 29c-.6534091.5891984-1.2305081 1.2614037-1.7146811 2h-39.0370885c-.33132882 0-1-.448-1-1s.66867118-1 1-1h5v-19c0-.33609175.448-1 1-1 .5526667 0 1 .66390825 1 1v19h7v-12c0-1.3189764.448-2 1-2s1 .6810236 1 2v12h7v-8c0-.3497537.448-1 1-1 .5526667 0 1 .6502463 1 1v8h7v-8c0-.3497537.448-1 1-1s1 .6502463 1 1v8zm11.2473467-1.6442711c-.4263507-.2028848-.8689449-.37716-1.3253004-.5203433-.0000815-5.8940177-.0001516-13.7280351-.0002102-23.50205227 0-1.09847683-.8962339-2-1.988266-2h-54.37156308c-1.09203206 0-1.98826597.90152317-1.98826597 2v34.22222227h45.08663925c.0422278.4536765.114021.8987694.2134341 1.3333333h-45.30007335v1.3466667c0 1.0984768.89623391 2 1.98826597 2h21.25561338c.0868117-.017699.1768926-.0179403.2645711 0h11.3320778c.0876785-.0179403.1777594-.017699.2645711 0h11.6281457c.3126877.4733787.6635974.9192884 1.0483332 1.3333333h-11.4462824l5.2379141 6.8005866c.0693306.0900147.1121662.192243.1297044.2971912h4.0404581c.3660297 0 .6627553.2984768.6627553.6666666 0 .3681899-.2967256.6666667-.6627553.6666667h-33.1377662c-.3660297 0-.6627553-.2984768-.6627553-.6666667 0-.3681898.2967256-.6666666.6627553-.6666666h4.0404581c.0175382-.1049482.0603738-.2071765.1297044-.2971912l5.2379141-6.8005866h-20.02541688c-1.82409137 0-3.31377662-1.4984768-3.31377662-3.3333333v-36.90222227c0-1.8348565 1.48968525-3.33333333 3.31377662-3.33333333h54.37156308c1.8240914 0 3.3137766 1.49847683 3.3137766 3.33333333zm-41.4499518 23.3109378h21.901671l-5.4668151-7.0977778h-10.9680408zm-.5491645-23.6666667c0-.55.45-1 1-1 .555 0 1 .45 1 1 0 .555-.445 1-1 1-.55-.001-1-.444-1-1zm0-4c0-.555.45-1 1-1 .555 0 1 .445 1 1 0 .55-.445 1-1 1-.55 0-1-.451-1-1zm8 4c0-.55.45-1 1-1 .555 0 1 .45 1 1 0 .555-.445 1-1 1-.55 0-1-.445-1-1zm9 0c0-.55.451-1 1-1 .556 0 1 .45 1 1 0 .555-.444 1-1 1-.548-.001-1-.444-1-1zm0-4c0-.555.451-1 1-1 .556 0 1 .445 1 1 0 .55-.444 1-1 1-.548 0-1-.451-1-1zm9 4c0-.55.445-1 1-1 .551 0 1 .45 1 1 0 .555-.449 1-1 1-.555 0-1-.445-1-1zm0-4c0-.55.445-1 1-1 .551 0 1 .45 1 1s-.449 1-1 1c-.555 0-1-.45-1-1zm0-4c0-.555.445-1 1-1 .551 0 1 .445 1 1 0 .55-.449 1-1 1-.555 0-1-.45-1-1zm0-4c0-.55.445-1 1-1 .551 0 1 .45 1 1 0 .555-.449 1-1 1-.555 0-1-.445-1-1z" stroke-width=".5"/><path d="m29.804992 28.86341c.2600107.2600107.2600107.6815713 0 .941582s-.6815713.2600107-.941582 0l-9.5667195-9.5667162c-4.6808907 4.1714063-11.83068914 3.862931-16.13490698-.6961344-4.30421784-4.5590653-4.20136441-11.71477604.23210872-16.14824916 4.43347312-4.43347313 11.58918386-4.53632656 16.14824916-.23210872 4.5590654 4.30421784 4.8675407 11.45401628.6961344 16.13490698zm-28.43738572-17.2580324c.00639785 5.6515127 4.58625853 10.2313734 10.23777132 10.2377712 5.6541649 0 10.2377712-4.5836063 10.2377712-10.2377712 0-5.65416499-4.5836063-10.23777132-10.2377712-10.23777132-5.65416499 0-10.23777132 4.58360633-10.23777132 10.23777132z" transform="translate(46 25)"/></g></g></svg>