<svg height="49" viewBox="0 0 60 49" width="60" xmlns="http://www.w3.org/2000/svg"><g fill="#008bff" stroke="#008bff" stroke-width=".5" transform="translate(0 1)"><path d="m59.6 11.8171429v-11.68285719h-59.2v11.68285719 35.0485714h59.2zm-1.3333333 33.7057142h-56.53333337v-33.7057142h56.53333337zm0-35.0485714h-56.53333337v-8.99714284h56.53333337z"/><path d="m6 4.43142857c.86666667 0 1.6.73857143 1.6 1.61142857 0 .87285715-.73333333 1.61142857-1.6 1.61142857s-1.6-.73857142-1.6-1.61142857c0-.87285714.73333333-1.61142857 1.6-1.61142857z"/><path d="m12.9333333 4.43142857c.8666667 0 1.6.73857143 1.6 1.61142857 0 .87285715-.7333333 1.61142857-1.6 1.61142857-.8666666 0-1.6-.73857142-1.6-1.61142857 0-.87285714.6666667-1.61142857 1.6-1.61142857z"/><path d="m19.8 4.43142857c.8666667 0 1.6.73857143 1.6 1.61142857 0 .87285715-.7333333 1.61142857-1.6 1.61142857s-1.6-.73857142-1.6-1.61142857c0-.87285714.7333333-1.61142857 1.6-1.61142857z"/><path d="m8.26666667 28.9385714h6.20000003c.3333333 4.0285715 3.6666666 7.1842857 7.8 7.1842857h2.9333333c.4 0 .6666667-.2685714.6666667-.6714285v-14.3685715c0-.4028571-.2666667-.6714285-.6666667-.6714285h-2.9333333c-4.0666667 0-7.4 3.1557143-7.8 7.1842857h-6.20000003c-.4 0-.66666667.2685714-.66666667.6714286 0 .4028571.26666667.6714285.66666667.6714285zm14.00000003-7.1842857h2.2666666v13.0257143h-2.2666666c-3.5333334 0-6.4666667-2.9542857-6.4666667-6.5128571 0-3.5585715 2.8666667-6.5128572 6.4666667-6.5128572z"/><path d="m30.4 31.2885714c-.4 0-.6666667.2685715-.6666667.6714286s.2666667.6714286.6666667.6714286h3.8v2.8871428c0 .4028572.2666667.6714286.6666667.6714286h2.9333333c4.0666667 0 7.4-3.1557143 7.8-7.1842857h6.2c.4 0 .6666667-.2685714.6666667-.6714286 0-.4028571-.2666667-.6714286-.6666667-.6714286h-6.2c-.3333333-4.0285714-3.6666667-7.1842857-7.8-7.1842857h-2.9333333c-.4 0-.6666667.2685715-.6666667.6714286v2.8871429h-3.8c-.4 0-.6666667.2685714-.6666667.6714285 0 .4028572.2666667.6714286.6666667.6714286h3.8v5.9757143h-3.8zm5.0666667-9.5342857h2.2666666c3.5333334 0 6.4666667 2.9542857 6.4666667 6.5128572 0 3.5585714-2.9333333 6.5128571-6.4666667 6.5128571h-2.2666666z"/></g></svg>