<svg height="56" viewBox="0 0 62 56" width="62" xmlns="http://www.w3.org/2000/svg"><path d="m143 41.1656215v-41.1656215h-60v41.1656215h29.333333v5.3581705l-11 6.3275544.666667 1.1486536 10.773333-6.1947621h.453334l10.773333 6.1947621.666667-1.1486536-11-6.3275544v-5.3581705zm-30.666667-1.3279232h-27.9999997v-38.50977502h57.3333337v38.50977502zm-8.44-21.7513833c-.013818-.0289859-.031783-.0558234-.053333-.0796754-1.115588-2.9194195-3.9718665-4.809067-7.1064251-4.7014455-3.1345585.1076215-5.8533943 2.1886843-6.7644668 5.1776869s.187333 6.2241689 2.7328344 8.0490979c2.5455013 1.8249289 5.9745152 1.8355747 8.5313905.0264866.101861-.0160262.198099-.0571038.28-.1195131 1.375385-1.0859818 2.320128-2.6220173 2.666667-4.3356695.003167-.0486394.003167-.0974321 0-.1460715.040844-.1908634.071994-.3836573.093333-.5776467 0-.1394319 0-.2855035 0-.4249354 0-.139432 0-.2058281 0-.3054224v-.0663961c.019825-.8478265-.108763-1.6926141-.38-2.4964958zm-6.2266663-3.4393213c2.0132164.2398643 3.7686143 1.4761448 4.6666663 3.2866101l-4.6666663 1.6997418zm-.6666667 11.9114718c-3.1744651-.0129439-5.7894596-2.486319-5.9661358-5.6430298s2.1461141-5.9042079 5.2994691-6.268442v5.9756548c.0004586.1467019.0496883.2891222.14.4050166l3.6266667 4.6477314c-.9316776.5737034-2.0046315.8793461-3.1.883069zm4.16-1.6798229-3.1-3.9837699 4.76-1.7263002c0 .0796754.04.1593508.053333.2390262.003182.0619292.003182.12398 0 .1859092 0 .1327924.046667.2589451.06.3917374.013334.1327923 0 .2788639 0 .4182958.02548.0585043.047736.1183498.066667.1792697-.002815 1.621246-.666939 3.1717686-1.84 4.2958318zm12.186667-2.8749539 5.146666-5.1324235 8.626667 8.6315013 5.92-5.8959793c1.173324.650222 2.649066.3301769 3.444698-.7470536.795632-1.0772306.662962-2.5756123-.309681-3.4975436-.972642-.9219312-2.481848-.9798221-3.522809-.1351297-1.04096.8446924-1.288956 2.3284723-.578875 3.4634598l-4.953333 4.933235-8.626667-8.6248617-6.046666 6.0154924c-.429239-.2821533-.932366-.4322479-1.446667-.431575-1.472759 0-2.666667 1.189063-2.666667 2.6558465 0 1.4667836 1.193908 2.6558466 2.666667 2.6558466s2.666667-1.189063 2.666667-2.6558466c-.001613-.4317894-.111617-.8563229-.32-1.2349686zm20.986666-6.0686094c.73638 0 1.333334.5945315 1.333334 1.3279233s-.596954 1.3279233-1.333334 1.3279233c-.736379 0-1.333333-.5945315-1.333333-1.3279233s.596954-1.3279233 1.333333-1.3279233zm-23.333333 8.6315013c-.73638 0-1.333333-.5945315-1.333333-1.3279233s.596953-1.3279233 1.333333-1.3279233 1.333333.5945315 1.333333 1.3279233-.596953 1.3279233-1.333333 1.3279233z" fill="#008bff" stroke="#008bff" stroke-width=".5" transform="translate(-82 1)"/></svg>