<svg height="61" viewBox="0 0 79 61" width="79" xmlns="http://www.w3.org/2000/svg"><path d="m194.067843 41.2331617c.047233.4204911.101923.8585028.171529 1.3065261.064634.4129823.134239.815953.208817 1.1989003h-25.63479c-.238648-.0025029-1.864439-.0525614-2.965701-1.4091459-.802951-.9886548-.847698-2.0874382-.847698-2.4303388v-31.79964295c.002486-.29784794.044747-1.54430383 1.016741-2.60304045 1.098776-1.19890036 2.548066-1.23644421 2.796658-1.23894713h2.319362v-1.62439735c0-.24278358.032317-.97363724.559331-1.63941489.753234-.95611678 1.89427-.99115771 2.055855-.99366063h2.647503c.171528 0 1.098776.01251462 1.847037.76339167.755719.75588289.765663 1.69948505.765663 1.86968385v1.62439735h16.581076v-1.62439735c0-.18021049.017401-1.09377757.743289-1.84465462.753233-.77340336 1.702854-.7884209 1.871897-.7884209h2.647503c.16407 0 1.170867.01501754 1.929072.84348522.663741.72835073.683628 1.59185935.683628 1.7895903v1.62439735h2.321848c.310739.00500585 1.50398.05005847 2.53315.97864309 1.233016 1.11129805 1.275277 2.61305213 1.280248 2.86334449v5.14851365c-.417634.2052397-.850184.4305028-1.290191.6757893-.417635.2327719-.820353.4630408-1.200699.6958127v-6.51010394c0-.13265495-.022373-.48056133-.263507-.80594137-.382832-.51309932-.991882-.54063148-1.076403-.54313443h-4.790365v-4.26247871h-2.906038v4.26247871h-21.557884v-4.25747286h-2.898581v4.25747286h-4.790365c-.104408-.00250294-.522042-.00250294-.884987.3053567-.459894.39546189-.457409.96612842-.454923 1.0437191v7.39613894h38.283143c-.576733.4054736-1.180811.8585027-1.797319 1.3690991-.462381.3829473-.892445.7608887-1.292677 1.1338244h-35.193147v21.8955747c.002486.1201403.022374.4980818.303282.8409823.380346.4630408.93222.4855672 1.019227.4880701zm27.369962-25.6612232c12.459423 0 22.562195 10.1668752 22.562195 22.7140308 0 12.5446525-10.102772 22.7140307-22.562195 22.7140307s-22.55971-10.1693782-22.55971-22.7140307c0-12.5471556 10.100287-22.7140308 22.55971-22.7140308zm-.029831 42.925138c11.087196 0 20.073791-9.0480685 20.073791-20.2111072 0-11.1630388-8.986595-20.2111072-20.073791-20.2111072s-20.073791 9.0480684-20.073791 20.2111072c0 11.1630387 8.986595 20.2111072 20.073791 20.2111072zm8.642543-30.6510514c.482269-.4880701 1.275277-.4880701 1.757545 0 .482268.4855671.482268 1.2814968 0 1.7695669l-9.483779 9.5461502c-.002486.0025029-.002486.0050058-.004972.0100117-.24362.2427836-.561817.3654268-.882501.3654268-.318197 0-.638881-.1226432-.877529-.3654268-.002486-.0050059-.004972-.0075088-.007458-.0100117l-6.585197-6.6302443c-.484755-.4855672-.484755-1.2839998 0-1.7695669.484754-.4855672 1.27279-.4855672 1.757544 0l5.71264 5.754221zm-34.450851-18.58370638h2.478461v1.24645588h2.915982v-1.24645588h2.475975v1.24645588 1.2464559 1.2464559h-7.870418v-1.2464559-1.2464559zm-24.461188 0h2.475975v1.24645588h2.915982v-1.24645588h2.478461v1.24645588 1.2464559 1.2464559h-7.870418v-1.2464559-1.2464559zm1.318034 21.60548588v-2.5029235h4.971837v2.5029235zm0 5.3462446v-2.5029235h4.971837v2.5029235zm12.3575-5.3462446v-2.5029235h4.971837v2.5029235zm0 5.3462446v-2.5029235h4.971837v2.5029235zm0-10.6949921v-2.5029235h4.971837v2.5029235zm12.317477-.268814c0-.7458712.002486-1.4892394.002486-2.2351107h1.334938c-.223732.3353918-.447465.688304-.668712 1.0562338-.241134.4029706-.464866.7984325-.668712 1.1788769z" fill="#008bff" transform="translate(-165)"/></svg>