<svg height="63" viewBox="0 0 60 63" width="60" xmlns="http://www.w3.org/2000/svg"><g fill="none" fill-rule="evenodd"><ellipse cx="30" cy="61" fill="#eef7ff" rx="30" ry="2"/><g fill="#008bff" fill-rule="nonzero"><path d="m41.5868263 41.0513236c-.2662909-.0307942-.5325818-.0513236-.8087354-.0513236-.4832688 0-.9468123.0513236-1.4103558.1539708-4.5368087.6056186-8.7087002 3.6439763-11.9041916 8.7147488l-.4635435.7287953.3550546.5645597c3.5801338 5.6969205 8.4128214 8.8379254 13.5907009 8.8379254 5.1778796 0 10.0105671-3.1410049 13.590701-8.8379254l.4635435-.7287953-.3550546-.5645597c-3.4519197-5.5018909-8.0774921-8.6121016-13.0581191-8.817396zm4.0338148 7.0415991c0 2.7817396-2.1697781 5.0399784-4.8425502 5.0399784s-4.8425502-2.2582388-4.8425502-5.0399784c0-2.4019449 1.6273336-4.424095 3.8069743-4.9168017.4339556-.0513236.8777738-.0923825 1.3215921-.0923825h.0591757c2.5051075.1950297 4.4973583 2.3506213 4.4973583 5.0091842zm-4.6551603 9.8541329c-4.3296936 0-8.422684-2.6072393-11.5787249-7.3495407 1.5385699-2.3506213 3.3039803-4.1777418 5.2074674-5.4505673-.3945051.8930308-.6213455 1.8887088-.6213455 2.9357104 0 3.910859 3.0574146 7.0929228 6.8150757 7.0929228 3.7576612 0 6.8150757-3.1820638 6.8150757-7.0929228 0-1.252296-.3156041-2.4224743-.8580486-3.4386818 2.1697781 1.2420314 4.1817542 3.1923285 5.9175766 5.7893031-3.1856287 4.8552134-7.3279323 7.5137763-11.6970764 7.5137763z"/><path d="m29 26.14c-1.44.37-2.57 1.52-2.9 2.98h-7.1c-.55 0-1 .45-1 1s.45 1 1 1h7.18c.49 1.66 2.01 2.88 3.82 2.88 2.21 0 4-1.79 4-4 0-1.86-1.28-3.41-3-3.86v-10.14c0-.55-.45-1-1-1s-1 .45-1 1zm3 3.86c0 1.1-.9 2-2 2s-2-.9-2-2 .9-2 2-2 2 .9 2 2z"/><path d="m30 10c.55 0 1-.45 1-1v-1c0-.55-.45-1-1-1s-1 .45-1 1v1c0 .55.45 1 1 1z"/><path d="m52 31c.55 0 1-.45 1-1s-.45-1-1-1h-1c-.55 0-1 .45-1 1s.45 1 1 1z"/><path d="m8 29c-.55 0-1 .45-1 1s.45 1 1 1h1c.55 0 1-.45 1-1s-.45-1-1-1z"/><path d="m45.8881701 15.6780759.7874306-.7881592c.4325324-.4329324.4325324-1.1322849 0-1.5652173-.4325323-.4329325-1.1312384-.4329325-1.5637708 0l-.7874306.7881591c-.4325324.4329324-.4325324 1.1322849 0 1.5652174.2218114.2220166.4990757.3219241.7874306.3219241s.5545287-.1110083.7763402-.3219241z"/><path d="m14.1077348 44.3246994-.7845304.7881591c-.4309392.4329324-.4309392 1.1322849 0 1.5652174.2209945.2220166.4972376.3219241.7845304.3219241s.5635359-.1110083.7845304-.3219241l.7845304-.7881592c.4309392-.4329324.4309392-1.1322849 0-1.5652173-.4309392-.4329325-1.1381216-.4329325-1.5690608 0z"/><path d="m15.6743529 14.1128585-.7870635-.7881591c-.4323306-.4329325-1.1307108-.4329325-1.5630414 0-.4323307.4329324-.4323307 1.1322849 0 1.5652173l.7870634.7881592c.221708.2220166.498843.3219241.7870634.3219241s.5653555-.1110083.7870635-.3219241c.4212452-.4218317.4212452-1.132285-.0110854-1.5652174z"/><path d="m30 0c-16.54 0-30 13.4258664-30 29.9239222 0 13.7949282 9.36 25.7345732 22.76 29.0461539.08.0199493.16.0299239.24.0299239.45 0 .86-.2992392.97-.7580727.13-.5386306-.19-1.0772612-.73-1.2069315-12.5-3.0921387-21.24-14.243787-21.24-27.1110736 0-15.4008453 12.56-27.92899405 28-27.92899405s28 12.52814875 28 27.92899405c0 3.4612004-.63 6.8426036-1.88 10.0644125-.2.5087067.06 1.0872359.57 1.2867287.52.1994928 1.09-.0598478 1.29-.5685545 1.34-3.4512257 2.02-7.081995 2.02-10.7825867 0-16.4980558-13.46-29.9239222-30-29.9239222z"/></g></g></svg>