<svg width="196" height="54" viewBox="0 0 196 54" fill="none" xmlns="http://www.w3.org/2000/svg">
<path d="M0 35.6V15L4.7 14V35.6H0Z" fill="#03435F"/>
<path d="M196 4C196 6.22223 194.222 8 192 8C189.778 8 188 6.22223 188 4C188 1.77778 189.778 0 192 0C194.159 0 196 1.77778 196 4Z" fill="#E12A27"/>
<path d="M174.704 11.2057C173.289 11.4736 171.938 11.6746 172.002 12.0764C172.067 12.4783 178.372 12.6123 181.524 14.8227C181.846 15.0237 182.167 15.3586 182.296 15.6935C183.905 20.6502 173.16 34.5824 174.254 34.9843C175.862 35.5202 187.507 22.1907 191.175 14.7557C191.432 14.2199 192.397 11.8085 191.818 11.0047C191.496 10.6028 190.531 10.2679 189.18 10.134C188.344 10.067 187.443 10 186.542 10C182.36 10 177.471 10.7368 174.704 11.2057Z" fill="#E12A27"/>
<path d="M68.1 22.8997L68.8 19.1997C68.8 19.1997 63.4 17.5997 59 20.5997V35.5997H63.7V23.3997C65.5 21.9997 68.1 22.8997 68.1 22.8997Z" fill="#03435F"/>
<path d="M27.6992 14.9016L32.3992 14.1016V19.0016H36.9992V22.9016H32.3992V28.7016C32.3992 29.7016 32.5992 30.5016 32.8992 31.1016C33.1992 31.7016 33.8992 32.0016 34.9992 32.0016C35.4992 32.0016 35.9992 32.0016 36.5992 31.9016C37.0992 31.8016 37.5992 31.7016 38.0992 31.5016L38.7992 35.1016C38.1992 35.3016 37.5992 35.5016 36.8992 35.7016C36.1992 35.9016 35.3992 36.0016 34.3992 36.0016C33.0992 36.0016 32.0992 35.8016 31.1992 35.5016C30.3992 35.2016 29.6992 34.7016 29.1992 34.1016C28.6992 33.5016 28.2992 32.7016 28.0992 31.9016C27.8992 31.0016 27.7992 30.0016 27.7992 29.0016V14.9016H27.6992Z" fill="#03435F"/>
<path d="M75.7008 32.1984C76.6008 32.1984 77.2008 32.0984 77.5008 31.8984C77.9008 31.6984 78.0008 31.3984 78.0008 30.8984C78.0008 30.4984 77.8008 30.1984 77.3008 29.8984C76.8008 29.5984 76.1008 29.2984 75.2008 28.8984C74.5008 28.5984 73.8008 28.2984 73.2008 28.0984C72.6008 27.8984 72.1008 27.4984 71.7008 26.9984C71.3008 26.5984 71.0008 26.0984 70.7008 25.4984C70.5008 24.8984 70.4008 24.2984 70.4008 23.4984C70.4008 21.8984 71.0008 20.6984 72.1008 19.7984C73.3008 18.8984 74.8008 18.3984 76.8008 18.3984C77.8008 18.3984 78.8008 18.4984 79.7008 18.6984C80.6008 18.8984 81.4008 19.0984 81.9008 19.2984L81.1008 22.8984C80.6008 22.6984 80.0008 22.4984 79.3008 22.3984C78.7008 22.2984 77.9008 22.1984 77.1008 22.1984C75.6008 22.1984 74.9008 22.5984 74.9008 23.3984C74.9008 23.5984 74.9008 23.7984 75.0008 23.8984C75.1008 23.9984 75.2008 24.1984 75.4008 24.2984C75.6008 24.3984 75.8008 24.5984 76.2008 24.6984C76.5008 24.8984 76.9008 24.9984 77.4008 25.1984C78.4008 25.5984 79.3008 25.9984 79.9008 26.2984C80.6008 26.6984 81.1008 27.0984 81.5008 27.4984C81.9008 27.8984 82.2008 28.3984 82.3008 28.8984C82.5008 29.3984 82.5008 29.9984 82.5008 30.6984C82.5008 32.2984 81.9008 33.5984 80.7008 34.3984C79.5008 35.1984 77.7008 35.6984 75.5008 35.6984C74.0008 35.6984 72.8008 35.5984 71.8008 35.2984C70.8008 34.9984 70.1008 34.7984 69.8008 34.6984L70.6008 30.8984C71.4008 31.1984 72.2008 31.4984 73.1008 31.5984C74.1008 32.0984 74.9008 32.1984 75.7008 32.1984Z" fill="#03435F"/>
<path d="M97.1984 26.0984C96.7984 27.6984 96.2984 29.2984 95.8984 30.7984C95.3984 32.3984 94.8984 33.9984 94.3984 35.4984H90.7984C90.3984 34.5984 89.9984 33.5984 89.5984 32.3984C89.1984 31.1984 88.6984 29.8984 88.1984 28.3984C87.6984 26.9984 87.1984 25.3984 86.7984 23.7984C86.2984 22.1984 85.7984 20.5984 85.3984 18.8984H90.2984C90.4984 19.6984 90.6984 20.4984 90.8984 21.3984C91.0984 22.2984 91.2984 23.1984 91.4984 24.0984C91.6984 24.9984 91.9984 25.9984 92.1984 26.8984C92.3984 27.8984 92.6984 28.7984 92.8984 29.6984C93.1984 28.7984 93.3984 27.7984 93.6984 26.8984C93.9984 25.8984 94.1984 24.9984 94.4984 24.0984C94.6984 23.1984 94.9984 22.2984 95.1984 21.3984C95.3984 20.4984 95.5984 19.6984 95.7984 18.9984H99.1984C99.3984 19.7984 99.5984 20.5984 99.7984 21.3984C99.9984 22.2984 100.198 23.1984 100.498 24.0984C100.698 24.9984 100.998 25.9984 101.198 26.8984C101.498 27.8984 101.698 28.7984 101.998 29.6984C102.298 28.7984 102.498 27.8984 102.798 26.8984C103.098 25.8984 103.298 24.9984 103.498 24.0984C103.698 23.1984 103.898 22.1984 104.098 21.3984C104.298 20.4984 104.498 19.6984 104.698 18.8984H109.598C109.098 20.4984 108.698 22.1984 108.198 23.7984C107.698 25.3984 107.198 26.8984 106.798 28.3984C106.298 29.7984 105.898 31.1984 105.398 32.3984C104.898 33.5984 104.498 34.6984 104.198 35.4984H100.098C99.5984 33.8984 99.0984 32.2984 98.5984 30.7984C98.0984 29.2984 97.5984 27.6984 97.1984 26.0984Z" fill="#03435F"/>
<path d="M117.302 19H112.602V35.5H117.302V19Z" fill="#03435F"/>
<path d="M121 14.9016L125.7 14.1016V19.1016H130.3V23.0016H125.7V28.8016C125.7 29.8016 125.9 30.6016 126.2 31.2016C126.5 31.8016 127.2 32.1016 128.3 32.1016C128.8 32.1016 129.3 32.1016 129.9 32.0016C130.4 31.9016 130.9 31.8016 131.4 31.6016L132.1 35.2016C131.5 35.4016 130.9 35.6016 130.2 35.8016C129.5 36.0016 128.7 36.1016 127.7 36.1016C126.4 36.1016 125.4 35.9016 124.5 35.6016C123.7 35.3016 123 34.8016 122.5 34.2016C122 33.6016 121.6 32.8016 121.4 32.0016C121.2 31.1016 121.1 30.1016 121.1 29.1016V14.9016H121Z" fill="#03435F"/>
<path d="M133.602 27.3C133.602 26.1 133.802 25 134.202 23.9C134.602 22.8 135.102 21.9 135.902 21.1C136.602 20.3 137.502 19.7 138.602 19.2C139.602 18.7 140.802 18.5 142.202 18.5C143.102 18.5 143.902 18.6 144.602 18.7C145.302 18.9 146.002 19.1 146.702 19.4L145.702 23.1C145.302 22.9 144.802 22.8 144.302 22.7C143.802 22.6 143.202 22.5 142.502 22.5C141.102 22.5 140.102 22.9 139.402 23.8C138.702 24.7 138.402 25.8 138.402 27.2C138.402 28.7 138.702 29.8 139.402 30.7C140.002 31.5 141.202 31.9 142.702 31.9C143.302 31.9 143.902 31.8 144.502 31.7C145.102 31.6 145.702 31.4 146.302 31.2L147.002 35C146.502 35.2 145.802 35.4 145.002 35.6C144.202 35.8 143.302 35.9 142.302 35.9C140.802 35.9 139.502 35.7 138.402 35.2C137.302 34.8 136.402 34.1 135.702 33.4C135.002 32.6 134.502 31.7 134.202 30.6C133.802 29.7 133.602 28.5 133.602 27.3Z" fill="#03435F"/>
<path d="M150 35.6016V14.9016L154.7 14.1016V19.1016C155 19.0016 155.4 18.9016 155.9 18.8016C156.4 18.7016 156.9 18.7016 157.3 18.7016C158.6 18.7016 159.8 18.9016 160.6 19.2016C161.5 19.6016 162.2 20.1016 162.7 20.8016C163.2 21.5016 163.6 22.3016 163.8 23.2016C164 24.1016 164.1 25.1016 164.1 26.3016V35.6016H159.4V26.8016C159.4 25.3016 159.2 24.2016 158.8 23.6016C158.4 23.0016 157.7 22.7016 156.6 22.7016C156.2 22.7016 155.8 22.7016 155.4 22.8016C155 22.9016 154.7 23.0016 154.4 23.0016V35.6016H150Z" fill="#03435F"/>
<path d="M8.80078 35.5992V20.5992C8.80078 20.5992 11.2008 18.6992 16.3008 18.6992C21.0008 18.6992 23.6008 20.9992 23.6008 26.1992V35.5992H18.9008V26.1992C18.9008 22.8992 17.3008 22.6992 15.9008 22.6992C14.5008 22.6992 13.6008 23.3992 13.6008 23.3992V35.5992H8.80078Z" fill="#03435F"/>
<path d="M47.9984 21.9016C44.9984 21.9016 44.6984 25.2016 44.6984 25.2016H51.2984C51.2984 25.2016 51.0984 21.9016 47.9984 21.9016ZM55.2984 28.5016H44.7984C44.7984 28.5016 44.9984 32.0016 49.6984 32.0016C51.9984 32.0016 54.3984 31.3016 54.3984 31.3016L54.8984 35.0016C54.8984 35.0016 52.5984 35.9016 49.2984 35.9016C44.5984 35.9016 40.3984 33.6016 40.3984 27.0016C40.3984 21.9016 43.6984 18.6016 48.3984 18.6016C55.2984 18.7016 55.7984 25.7016 55.2984 28.5016Z" fill="#03435F"/>
<path d="M100.428 49.814C99.7335 49.814 99.0891 49.6832 98.4951 49.4214C97.9011 49.1596 97.3876 48.8022 96.9546 48.3491L97.7098 47.4731C98.0621 47.8457 98.475 48.1477 98.9482 48.3793C99.4314 48.6008 99.9298 48.7116 100.443 48.7116C101.098 48.7116 101.606 48.5656 101.969 48.2736C102.331 47.9715 102.512 47.5789 102.512 47.0956C102.512 46.8439 102.467 46.6324 102.376 46.4613C102.296 46.28 102.18 46.129 102.029 46.0082C101.888 45.8773 101.717 45.7615 101.516 45.6608C101.314 45.5601 101.098 45.4544 100.866 45.3437L99.4466 44.7245C99.215 44.6238 98.9784 44.503 98.7367 44.362C98.4951 44.221 98.2786 44.0499 98.0873 43.8485C97.896 43.6471 97.74 43.4105 97.6191 43.1387C97.4983 42.8568 97.4379 42.5346 97.4379 42.1721C97.4379 41.7996 97.5134 41.4522 97.6644 41.13C97.8255 40.8079 98.042 40.531 98.3139 40.2994C98.5958 40.0578 98.923 39.8715 99.2955 39.7406C99.6781 39.6097 100.096 39.5443 100.549 39.5443C101.143 39.5443 101.692 39.6601 102.195 39.8916C102.699 40.1131 103.127 40.4051 103.479 40.7676L102.799 41.5831C102.497 41.2911 102.16 41.0646 101.787 40.9035C101.425 40.7323 101.012 40.6468 100.549 40.6468C99.9953 40.6468 99.5472 40.7777 99.2049 41.0394C98.8727 41.2911 98.7065 41.6435 98.7065 42.0966C98.7065 42.3383 98.7518 42.5447 98.8424 42.7158C98.9431 42.8769 99.074 43.0229 99.2351 43.1538C99.3962 43.2746 99.5724 43.3854 99.7637 43.4861C99.955 43.5767 100.151 43.6623 100.353 43.7428L101.757 44.3469C102.039 44.4677 102.306 44.6087 102.558 44.7698C102.809 44.9208 103.026 45.102 103.207 45.3135C103.388 45.5148 103.529 45.7565 103.63 46.0384C103.741 46.3102 103.796 46.6274 103.796 46.9899C103.796 47.3825 103.716 47.75 103.554 48.0923C103.403 48.4347 103.182 48.7367 102.89 48.9985C102.598 49.2502 102.246 49.4516 101.833 49.6026C101.42 49.7436 100.952 49.814 100.428 49.814ZM105.626 49.6328V42.2929H106.653L106.759 43.3501H106.804C107.126 42.9977 107.474 42.7058 107.846 42.4742C108.229 42.2325 108.642 42.1117 109.085 42.1117C109.649 42.1117 110.087 42.2376 110.399 42.4893C110.721 42.7309 110.957 43.0732 111.108 43.5163C111.491 43.0934 111.874 42.7561 112.256 42.5044C112.649 42.2426 113.072 42.1117 113.525 42.1117C114.28 42.1117 114.839 42.3534 115.201 42.8366C115.574 43.3199 115.76 44.0348 115.76 44.9812V49.6328H114.522V45.1473C114.522 44.4526 114.411 43.9542 114.189 43.6522C113.968 43.3401 113.626 43.184 113.162 43.184C112.609 43.184 111.994 43.5616 111.32 44.3167V49.6328H110.081V45.1473C110.081 44.4526 109.971 43.9542 109.749 43.6522C109.528 43.3401 109.18 43.184 108.707 43.184C108.153 43.184 107.539 43.5616 106.865 44.3167V49.6328H105.626ZM119.839 49.814C119.225 49.814 118.712 49.6328 118.299 49.2704C117.896 48.9079 117.695 48.3944 117.695 47.7299C117.695 46.9244 118.052 46.3102 118.767 45.8874C119.482 45.4544 120.625 45.1524 122.195 44.9812C122.195 44.7496 122.17 44.5231 122.12 44.3016C122.08 44.0801 122.004 43.8838 121.893 43.7126C121.783 43.5414 121.626 43.4055 121.425 43.3048C121.234 43.1941 120.987 43.1387 120.685 43.1387C120.262 43.1387 119.864 43.2192 119.492 43.3803C119.119 43.5414 118.787 43.7227 118.495 43.924L118.012 43.0632C118.354 42.8417 118.772 42.6302 119.265 42.4289C119.759 42.2174 120.302 42.1117 120.896 42.1117C121.793 42.1117 122.442 42.3886 122.845 42.9424C123.247 43.4861 123.449 44.216 123.449 45.1322V49.6328H122.422L122.316 48.7569H122.271C121.918 49.0488 121.541 49.3006 121.138 49.512C120.735 49.7134 120.302 49.814 119.839 49.814ZM120.202 48.8173C120.554 48.8173 120.886 48.7367 121.199 48.5756C121.511 48.4045 121.843 48.1578 122.195 47.8356V45.7968C121.581 45.8773 121.063 45.9729 120.64 46.0837C120.227 46.1945 119.89 46.3253 119.628 46.4764C119.376 46.6274 119.19 46.8036 119.069 47.005C118.958 47.1963 118.903 47.4077 118.903 47.6393C118.903 48.0621 119.029 48.3642 119.281 48.5454C119.532 48.7267 119.839 48.8173 120.202 48.8173ZM125.758 49.6328V42.2929H126.785L126.891 43.622H126.936C127.188 43.1588 127.49 42.7913 127.842 42.5195C128.205 42.2476 128.597 42.1117 129.02 42.1117C129.312 42.1117 129.574 42.1621 129.806 42.2627L129.564 43.3501C129.443 43.3099 129.332 43.2797 129.232 43.2595C129.131 43.2394 129.005 43.2293 128.854 43.2293C128.542 43.2293 128.215 43.3552 127.872 43.6069C127.54 43.8586 127.248 44.2966 126.997 44.9208V49.6328H125.758ZM133.305 49.814C132.912 49.814 132.58 49.7536 132.308 49.6328C132.046 49.512 131.83 49.3459 131.658 49.1344C131.497 48.923 131.382 48.6662 131.311 48.3642C131.241 48.0621 131.205 47.7299 131.205 47.3674V43.3048H130.118V42.3685L131.266 42.2929L131.417 40.239H132.459V42.2929H134.437V43.3048H132.459V47.3825C132.459 47.8356 132.539 48.188 132.7 48.4397C132.872 48.6813 133.169 48.8022 133.592 48.8022C133.722 48.8022 133.863 48.782 134.014 48.7418C134.165 48.7015 134.301 48.6562 134.422 48.6058L134.664 49.5422C134.462 49.6127 134.241 49.6731 133.999 49.7234C133.768 49.7838 133.536 49.814 133.305 49.814ZM136.097 49.6328V42.2929H137.124L137.23 43.3501H137.275C137.597 42.9977 137.944 42.7058 138.317 42.4742C138.7 42.2325 139.112 42.1117 139.555 42.1117C140.119 42.1117 140.557 42.2376 140.869 42.4893C141.192 42.7309 141.428 43.0732 141.579 43.5163C141.962 43.0934 142.344 42.7561 142.727 42.5044C143.12 42.2426 143.542 42.1117 143.996 42.1117C144.751 42.1117 145.309 42.3534 145.672 42.8366C146.044 43.3199 146.231 44.0348 146.231 44.9812V49.6328H144.992V45.1473C144.992 44.4526 144.882 43.9542 144.66 43.6522C144.439 43.3401 144.096 43.184 143.633 43.184C143.079 43.184 142.465 43.5616 141.791 44.3167V49.6328H140.552V45.1473C140.552 44.4526 140.441 43.9542 140.22 43.6522C139.998 43.3401 139.651 43.184 139.178 43.184C138.624 43.184 138.01 43.5616 137.335 44.3167V49.6328H136.097ZM151.473 49.814C151.02 49.814 150.587 49.7285 150.174 49.5573C149.771 49.3861 149.414 49.1395 149.102 48.8173C148.79 48.485 148.538 48.0823 148.347 47.6091C148.165 47.1258 148.075 46.5821 148.075 45.978C148.075 45.3638 148.165 44.8201 148.347 44.3469C148.538 43.8636 148.79 43.4558 149.102 43.1236C149.414 42.7913 149.771 42.5396 150.174 42.3685C150.587 42.1973 151.02 42.1117 151.473 42.1117C151.926 42.1117 152.354 42.1973 152.757 42.3685C153.169 42.5396 153.532 42.7913 153.844 43.1236C154.156 43.4558 154.403 43.8636 154.584 44.3469C154.775 44.8201 154.871 45.3638 154.871 45.978C154.871 46.5821 154.775 47.1258 154.584 47.6091C154.403 48.0823 154.156 48.485 153.844 48.8173C153.532 49.1395 153.169 49.3861 152.757 49.5573C152.354 49.7285 151.926 49.814 151.473 49.814ZM151.473 48.7871C151.785 48.7871 152.072 48.7216 152.334 48.5907C152.596 48.4498 152.817 48.2585 152.998 48.0168C153.19 47.7651 153.336 47.4681 153.436 47.1258C153.537 46.7835 153.587 46.4009 153.587 45.978C153.587 45.5551 153.537 45.1725 153.436 44.8302C153.336 44.4778 153.19 44.1757 152.998 43.924C152.817 43.6723 152.596 43.481 152.334 43.3501C152.072 43.2092 151.785 43.1387 151.473 43.1387C151.161 43.1387 150.874 43.2092 150.612 43.3501C150.35 43.481 150.124 43.6723 149.932 43.924C149.751 44.1757 149.61 44.4778 149.51 44.8302C149.409 45.1725 149.359 45.5551 149.359 45.978C149.359 46.4009 149.409 46.7835 149.51 47.1258C149.61 47.4681 149.751 47.7651 149.932 48.0168C150.124 48.2585 150.35 48.4498 150.612 48.5907C150.874 48.7216 151.161 48.7871 151.473 48.7871ZM158.331 49.6328L155.688 42.2929H156.972L158.361 46.4613C158.472 46.8237 158.582 47.1862 158.693 47.5487C158.814 47.9111 158.93 48.2685 159.041 48.6209H159.101C159.212 48.2685 159.323 47.9111 159.433 47.5487C159.544 47.1862 159.655 46.8237 159.766 46.4613L161.155 42.2929H162.378L159.781 49.6328H158.331ZM166.711 49.814C166.218 49.814 165.755 49.7285 165.322 49.5573C164.899 49.3761 164.526 49.1244 164.204 48.8022C163.892 48.4699 163.645 48.0672 163.464 47.594C163.283 47.1207 163.192 46.5821 163.192 45.978C163.192 45.3739 163.283 44.8352 163.464 44.362C163.655 43.8787 163.902 43.471 164.204 43.1387C164.516 42.8064 164.869 42.5547 165.261 42.3836C165.654 42.2023 166.062 42.1117 166.485 42.1117C166.948 42.1117 167.36 42.1923 167.723 42.3534C168.095 42.5145 168.403 42.746 168.644 43.0481C168.896 43.3501 169.087 43.7126 169.218 44.1355C169.349 44.5583 169.414 45.0316 169.414 45.5551C169.414 45.686 169.409 45.8169 169.399 45.9478C169.399 46.0686 169.389 46.1743 169.369 46.2649H164.415C164.466 47.0503 164.707 47.6745 165.14 48.1377C165.583 48.5907 166.157 48.8173 166.862 48.8173C167.214 48.8173 167.537 48.7669 167.829 48.6662C168.131 48.5555 168.418 48.4145 168.689 48.2434L169.127 49.0589C168.805 49.2603 168.448 49.4365 168.055 49.5875C167.663 49.7385 167.214 49.814 166.711 49.814ZM164.4 45.3739H168.327C168.327 44.6288 168.166 44.065 167.844 43.6824C167.532 43.2897 167.089 43.0934 166.515 43.0934C166.253 43.0934 166.001 43.1437 165.76 43.2444C165.528 43.3451 165.317 43.4961 165.125 43.6975C164.934 43.8888 164.773 44.1254 164.642 44.4073C164.521 44.6892 164.441 45.0114 164.4 45.3739Z" fill="#03435F"/>
</svg>
